<?xml version="1.0" encoding="UTF-8" standalone="no"?>
<!-- Created with Inkscape (http://www.inkscape.org/) -->

<svg
   xmlns:dc="http://purl.org/dc/elements/1.1/"
   xmlns:cc="http://creativecommons.org/ns#"
   xmlns:rdf="http://www.w3.org/1999/02/22-rdf-syntax-ns#"
   xmlns:svg="http://www.w3.org/2000/svg"
   xmlns="http://www.w3.org/2000/svg"
   xmlns:sodipodi="http://sodipodi.sourceforge.net/DTD/sodipodi-0.dtd"
   xmlns:inkscape="http://www.inkscape.org/namespaces/inkscape"
   width="210mm"
   height="180mm"
   viewBox="0 0 210 180"
   version="1.1"
   id="svg8"
   inkscape:export-filename="/home/sj/bitmap.png"
   inkscape:export-xdpi="96"
   inkscape:export-ydpi="96"
   inkscape:version="0.92.5 (2060ec1f9f, 2020-04-08)"
   sodipodi:docname="drawing-1.svg">
  <defs
     id="defs2">
    <filter
       style="color-interpolation-filters:sRGB"
       inkscape:label="Roughen"
       id="filter9260">
      <feTurbulence
         type="fractalNoise"
         numOctaves="1"
         seed="22"
         baseFrequency="0.013 0.013"
         result="turbulence"
         id="feTurbulence9256" />
      <feDisplacementMap
         in="SourceGraphic"
         in2="turbulence"
         scale="1.5"
         yChannelSelector="G"
         xChannelSelector="R"
         id="feDisplacementMap9258" />
    </filter>
    <filter
       style="color-interpolation-filters:sRGB"
       inkscape:label="Roughen"
       id="filter9266">
      <feTurbulence
         type="fractalNoise"
         numOctaves="1"
         seed="22"
         baseFrequency="0.013 0.013"
         result="turbulence"
         id="feTurbulence9262" />
      <feDisplacementMap
         in="SourceGraphic"
         in2="turbulence"
         scale="1.5"
         yChannelSelector="G"
         xChannelSelector="R"
         id="feDisplacementMap9264" />
    </filter>
    <filter
       style="color-interpolation-filters:sRGB"
       inkscape:label="Roughen"
       id="filter9272">
      <feTurbulence
         type="fractalNoise"
         numOctaves="1"
         seed="22"
         baseFrequency="0.013 0.013"
         result="turbulence"
         id="feTurbulence9268" />
      <feDisplacementMap
         in="SourceGraphic"
         in2="turbulence"
         scale="1.5"
         yChannelSelector="G"
         xChannelSelector="R"
         id="feDisplacementMap9270" />
    </filter>
    <filter
       style="color-interpolation-filters:sRGB"
       inkscape:label="Roughen"
       id="filter9278">
      <feTurbulence
         type="fractalNoise"
         numOctaves="1"
         seed="22"
         baseFrequency="0.013 0.013"
         result="turbulence"
         id="feTurbulence9274" />
      <feDisplacementMap
         in="SourceGraphic"
         in2="turbulence"
         scale="1.5"
         yChannelSelector="G"
         xChannelSelector="R"
         id="feDisplacementMap9276" />
    </filter>
    <filter
       style="color-interpolation-filters:sRGB"
       inkscape:label="Roughen"
       id="filter9284">
      <feTurbulence
         type="fractalNoise"
         numOctaves="1"
         seed="22"
         baseFrequency="0.013 0.013"
         result="turbulence"
         id="feTurbulence9280" />
      <feDisplacementMap
         in="SourceGraphic"
         in2="turbulence"
         scale="1.5"
         yChannelSelector="G"
         xChannelSelector="R"
         id="feDisplacementMap9282" />
    </filter>
    <filter
       style="color-interpolation-filters:sRGB"
       inkscape:label="Roughen"
       id="filter9290">
      <feTurbulence
         type="fractalNoise"
         numOctaves="1"
         seed="22"
         baseFrequency="0.013 0.013"
         result="turbulence"
         id="feTurbulence9286" />
      <feDisplacementMap
         in="SourceGraphic"
         in2="turbulence"
         scale="1.5"
         yChannelSelector="G"
         xChannelSelector="R"
         id="feDisplacementMap9288" />
    </filter>
    <filter
       style="color-interpolation-filters:sRGB"
       inkscape:label="Roughen"
       id="filter9296">
      <feTurbulence
         type="fractalNoise"
         numOctaves="1"
         seed="22"
         baseFrequency="0.013 0.013"
         result="turbulence"
         id="feTurbulence9292" />
      <feDisplacementMap
         in="SourceGraphic"
         in2="turbulence"
         scale="1.5"
         yChannelSelector="G"
         xChannelSelector="R"
         id="feDisplacementMap9294" />
    </filter>
    <filter
       style="color-interpolation-filters:sRGB"
       inkscape:label="Roughen"
       id="filter9302">
      <feTurbulence
         type="fractalNoise"
         numOctaves="1"
         seed="22"
         baseFrequency="0.013 0.013"
         result="turbulence"
         id="feTurbulence9298" />
      <feDisplacementMap
         in="SourceGraphic"
         in2="turbulence"
         scale="1.5"
         yChannelSelector="G"
         xChannelSelector="R"
         id="feDisplacementMap9300" />
    </filter>
    <filter
       style="color-interpolation-filters:sRGB"
       inkscape:label="Roughen"
       id="filter9308">
      <feTurbulence
         type="fractalNoise"
         numOctaves="1"
         seed="22"
         baseFrequency="0.013 0.013"
         result="turbulence"
         id="feTurbulence9304" />
      <feDisplacementMap
         in="SourceGraphic"
         in2="turbulence"
         scale="1.5"
         yChannelSelector="G"
         xChannelSelector="R"
         id="feDisplacementMap9306" />
    </filter>
    <filter
       style="color-interpolation-filters:sRGB"
       inkscape:label="Roughen"
       id="filter9314">
      <feTurbulence
         type="fractalNoise"
         numOctaves="1"
         seed="22"
         baseFrequency="0.013 0.013"
         result="turbulence"
         id="feTurbulence9310" />
      <feDisplacementMap
         in="SourceGraphic"
         in2="turbulence"
         scale="1.5"
         yChannelSelector="G"
         xChannelSelector="R"
         id="feDisplacementMap9312" />
    </filter>
    <filter
       style="color-interpolation-filters:sRGB"
       inkscape:label="Roughen"
       id="filter9320">
      <feTurbulence
         type="fractalNoise"
         numOctaves="1"
         seed="22"
         baseFrequency="0.013 0.013"
         result="turbulence"
         id="feTurbulence9316" />
      <feDisplacementMap
         in="SourceGraphic"
         in2="turbulence"
         scale="1.5"
         yChannelSelector="G"
         xChannelSelector="R"
         id="feDisplacementMap9318" />
    </filter>
    <filter
       style="color-interpolation-filters:sRGB"
       inkscape:label="Roughen"
       id="filter9326">
      <feTurbulence
         type="fractalNoise"
         numOctaves="1"
         seed="22"
         baseFrequency="0.013 0.013"
         result="turbulence"
         id="feTurbulence9322" />
      <feDisplacementMap
         in="SourceGraphic"
         in2="turbulence"
         scale="1.5"
         yChannelSelector="G"
         xChannelSelector="R"
         id="feDisplacementMap9324" />
    </filter>
    <filter
       style="color-interpolation-filters:sRGB"
       inkscape:label="Roughen"
       id="filter9332">
      <feTurbulence
         type="fractalNoise"
         numOctaves="1"
         seed="22"
         baseFrequency="0.013 0.013"
         result="turbulence"
         id="feTurbulence9328" />
      <feDisplacementMap
         in="SourceGraphic"
         in2="turbulence"
         scale="1.5"
         yChannelSelector="G"
         xChannelSelector="R"
         id="feDisplacementMap9330" />
    </filter>
    <filter
       style="color-interpolation-filters:sRGB"
       inkscape:label="Roughen"
       id="filter9338">
      <feTurbulence
         type="fractalNoise"
         numOctaves="1"
         seed="22"
         baseFrequency="0.013 0.013"
         result="turbulence"
         id="feTurbulence9334" />
      <feDisplacementMap
         in="SourceGraphic"
         in2="turbulence"
         scale="1.5"
         yChannelSelector="G"
         xChannelSelector="R"
         id="feDisplacementMap9336" />
    </filter>
    <filter
       style="color-interpolation-filters:sRGB"
       inkscape:label="Roughen"
       id="filter9344">
      <feTurbulence
         type="fractalNoise"
         numOctaves="1"
         seed="22"
         baseFrequency="0.013 0.013"
         result="turbulence"
         id="feTurbulence9340" />
      <feDisplacementMap
         in="SourceGraphic"
         in2="turbulence"
         scale="1.5"
         yChannelSelector="G"
         xChannelSelector="R"
         id="feDisplacementMap9342" />
    </filter>
    <filter
       style="color-interpolation-filters:sRGB"
       inkscape:label="Roughen"
       id="filter9350">
      <feTurbulence
         type="fractalNoise"
         numOctaves="1"
         seed="22"
         baseFrequency="0.013 0.013"
         result="turbulence"
         id="feTurbulence9346" />
      <feDisplacementMap
         in="SourceGraphic"
         in2="turbulence"
         scale="1.5"
         yChannelSelector="G"
         xChannelSelector="R"
         id="feDisplacementMap9348" />
    </filter>
    <filter
       style="color-interpolation-filters:sRGB"
       inkscape:label="Roughen"
       id="filter9356">
      <feTurbulence
         type="fractalNoise"
         numOctaves="1"
         seed="22"
         baseFrequency="0.013 0.013"
         result="turbulence"
         id="feTurbulence9352" />
      <feDisplacementMap
         in="SourceGraphic"
         in2="turbulence"
         scale="1.5"
         yChannelSelector="G"
         xChannelSelector="R"
         id="feDisplacementMap9354" />
    </filter>
    <filter
       style="color-interpolation-filters:sRGB"
       inkscape:label="Roughen"
       id="filter9362">
      <feTurbulence
         type="fractalNoise"
         numOctaves="1"
         seed="22"
         baseFrequency="0.013 0.013"
         result="turbulence"
         id="feTurbulence9358" />
      <feDisplacementMap
         in="SourceGraphic"
         in2="turbulence"
         scale="1.5"
         yChannelSelector="G"
         xChannelSelector="R"
         id="feDisplacementMap9360" />
    </filter>
    <filter
       style="color-interpolation-filters:sRGB"
       inkscape:label="Roughen"
       id="filter9368">
      <feTurbulence
         type="fractalNoise"
         numOctaves="1"
         seed="22"
         baseFrequency="0.013 0.013"
         result="turbulence"
         id="feTurbulence9364" />
      <feDisplacementMap
         in="SourceGraphic"
         in2="turbulence"
         scale="1.5"
         yChannelSelector="G"
         xChannelSelector="R"
         id="feDisplacementMap9366" />
    </filter>
    <filter
       style="color-interpolation-filters:sRGB"
       inkscape:label="Roughen"
       id="filter9374">
      <feTurbulence
         type="fractalNoise"
         numOctaves="1"
         seed="22"
         baseFrequency="0.013 0.013"
         result="turbulence"
         id="feTurbulence9370" />
      <feDisplacementMap
         in="SourceGraphic"
         in2="turbulence"
         scale="1.5"
         yChannelSelector="G"
         xChannelSelector="R"
         id="feDisplacementMap9372" />
    </filter>
    <filter
       style="color-interpolation-filters:sRGB"
       inkscape:label="Roughen"
       id="filter9380">
      <feTurbulence
         type="fractalNoise"
         numOctaves="1"
         seed="22"
         baseFrequency="0.013 0.013"
         result="turbulence"
         id="feTurbulence9376" />
      <feDisplacementMap
         in="SourceGraphic"
         in2="turbulence"
         scale="1.5"
         yChannelSelector="G"
         xChannelSelector="R"
         id="feDisplacementMap9378" />
    </filter>
    <filter
       style="color-interpolation-filters:sRGB"
       inkscape:label="Roughen"
       id="filter9386">
      <feTurbulence
         type="fractalNoise"
         numOctaves="1"
         seed="22"
         baseFrequency="0.013 0.013"
         result="turbulence"
         id="feTurbulence9382" />
      <feDisplacementMap
         in="SourceGraphic"
         in2="turbulence"
         scale="1.5"
         yChannelSelector="G"
         xChannelSelector="R"
         id="feDisplacementMap9384" />
    </filter>
    <filter
       style="color-interpolation-filters:sRGB"
       inkscape:label="Roughen"
       id="filter9392">
      <feTurbulence
         type="fractalNoise"
         numOctaves="1"
         seed="22"
         baseFrequency="0.013 0.013"
         result="turbulence"
         id="feTurbulence9388" />
      <feDisplacementMap
         in="SourceGraphic"
         in2="turbulence"
         scale="1.5"
         yChannelSelector="G"
         xChannelSelector="R"
         id="feDisplacementMap9390" />
    </filter>
    <filter
       style="color-interpolation-filters:sRGB"
       inkscape:label="Roughen"
       id="filter9398">
      <feTurbulence
         type="fractalNoise"
         numOctaves="1"
         seed="22"
         baseFrequency="0.013 0.013"
         result="turbulence"
         id="feTurbulence9394" />
      <feDisplacementMap
         in="SourceGraphic"
         in2="turbulence"
         scale="1.5"
         yChannelSelector="G"
         xChannelSelector="R"
         id="feDisplacementMap9396" />
    </filter>
    <filter
       style="color-interpolation-filters:sRGB"
       inkscape:label="Roughen"
       id="filter9404">
      <feTurbulence
         type="fractalNoise"
         numOctaves="1"
         seed="22"
         baseFrequency="0.013 0.013"
         result="turbulence"
         id="feTurbulence9400" />
      <feDisplacementMap
         in="SourceGraphic"
         in2="turbulence"
         scale="1.5"
         yChannelSelector="G"
         xChannelSelector="R"
         id="feDisplacementMap9402" />
    </filter>
    <filter
       style="color-interpolation-filters:sRGB"
       inkscape:label="Roughen"
       id="filter9410">
      <feTurbulence
         type="fractalNoise"
         numOctaves="1"
         seed="22"
         baseFrequency="0.013 0.013"
         result="turbulence"
         id="feTurbulence9406" />
      <feDisplacementMap
         in="SourceGraphic"
         in2="turbulence"
         scale="1.5"
         yChannelSelector="G"
         xChannelSelector="R"
         id="feDisplacementMap9408" />
    </filter>
    <filter
       style="color-interpolation-filters:sRGB"
       inkscape:label="Roughen"
       id="filter9416">
      <feTurbulence
         type="fractalNoise"
         numOctaves="1"
         seed="22"
         baseFrequency="0.013 0.013"
         result="turbulence"
         id="feTurbulence9412" />
      <feDisplacementMap
         in="SourceGraphic"
         in2="turbulence"
         scale="1.5"
         yChannelSelector="G"
         xChannelSelector="R"
         id="feDisplacementMap9414" />
    </filter>
    <filter
       style="color-interpolation-filters:sRGB"
       inkscape:label="Roughen"
       id="filter9422">
      <feTurbulence
         type="fractalNoise"
         numOctaves="1"
         seed="22"
         baseFrequency="0.013 0.013"
         result="turbulence"
         id="feTurbulence9418" />
      <feDisplacementMap
         in="SourceGraphic"
         in2="turbulence"
         scale="1.5"
         yChannelSelector="G"
         xChannelSelector="R"
         id="feDisplacementMap9420" />
    </filter>
  </defs>
  <sodipodi:namedview
     id="base"
     pagecolor="#ffffff"
     bordercolor="#666666"
     borderopacity="1.0"
     inkscape:pageopacity="0.0"
     inkscape:pageshadow="2"
     inkscape:zoom="0.49497475"
     inkscape:cx="553.26595"
     inkscape:cy="438.56465"
     inkscape:document-units="mm"
     inkscape:current-layer="layer1"
     showgrid="false"
     inkscape:window-width="1920"
     inkscape:window-height="1016"
     inkscape:window-x="0"
     inkscape:window-y="27"
     inkscape:window-maximized="1" />
  <metadata
     id="metadata5">
    <rdf:RDF>
      <cc:Work
         rdf:about="">
        <dc:format>image/svg+xml</dc:format>
        <dc:type
           rdf:resource="http://purl.org/dc/dcmitype/StillImage" />
        <dc:title></dc:title>
      </cc:Work>
    </rdf:RDF>
  </metadata>
  <g
     inkscape:label="Layer 1"
     inkscape:groupmode="layer"
     id="layer1"
     transform="translate(0,-117)">
    <path
       style="fill:#1a1a1a;stroke:#000000;stroke-width:0.26458332px;stroke-linecap:butt;stroke-linejoin:miter;stroke-opacity:1;filter:url(#filter9422)"
       d="m 83.128377,84.512128 53.861603,-8.40996 -10.11086,-54.806552 c 0,0 -36.380209,1.228423 -44.128719,2.173364 -7.748514,0.944941 -10.654448,1.049734 -10.654448,1.049734 z"
       id="path3724"
       inkscape:connector-curvature="0"
       transform="matrix(1.4941582,0,0,1.6980022,-13.151095,109.67407)" />
    <path
       style="fill:none;stroke:#000000;stroke-width:0.26458332px;stroke-linecap:butt;stroke-linejoin:miter;stroke-opacity:1;filter:url(#filter9416)"
       d="M 83.454909,85.857068 139.51469,76.703088 128.55664,19.30696 c 0,0 -31.671439,1.269529 -41.025872,2.138156 -9.354434,0.868627 -15.902535,1.202714 -15.902535,1.202714 z"
       id="path3726"
       inkscape:connector-curvature="0"
       transform="matrix(1.4941582,0,0,1.6980022,-13.151095,109.67407)" />
    <path
       style="fill:none;stroke:#000000;stroke-width:0.26458332px;stroke-linecap:butt;stroke-linejoin:miter;stroke-opacity:1;filter:url(#filter9410)"
       d="m 60.202461,13.092943 c 0,0 72.029139,-4.2094951 72.563669,-3.4076851 0.53454,0.8018091 13.57876,70.2911601 13.95674,73.0314901 0.37797,2.74033 0.37559,2.57238 0.37559,2.57238 l 0.14413,1.0302 c 0,0 -49.845609,9.24861 -55.562499,10.1463 -5.716895,0.8977 -14.800134,2.76396 -14.800134,2.76396 0,0 -0.543339,-0.11813 -0.838635,-0.4961 C 75.746028,98.355508 60.202461,13.092943 60.202461,13.092943 Z"
       id="path3728"
       inkscape:connector-curvature="0"
       sodipodi:nodetypes="ccccccccc"
       transform="matrix(1.4941582,0,0,1.6980022,-13.151095,109.67407)" />
    <path
       style="fill:#cccccc;stroke:#000000;stroke-width:0.26458332px;stroke-linecap:butt;stroke-linejoin:miter;stroke-opacity:1;filter:url(#filter9404)"
       d="m 60.202461,13.092943 c -10.891234,1.837478 -13.697564,2.672696 -13.697564,2.672696 0,0 -2.438833,1.670434 -2.906556,5.078121 -0.467722,3.407686 2.171565,14.566189 2.171565,14.566189 l -34.110274,6.11379 6.9156,55.558649 c 0,0 0,0.56795 0.835216,0.56795 0.835218,0 36.682743,-2.40542 36.682743,-2.40542 l 2.171565,9.120572 c 0,0 0.03341,0.53454 1.570209,0.46772 1.536798,-0.0668 18.675459,-0.66817 18.675459,-0.66817 0,0 0.267269,0.13363 1.069078,0.0334 0.801806,-0.10022 63.777188,-12.127352 63.777188,-12.127352 l -0.63477,-4.6104 -65.841963,11.7689 c 0,0 -0.607916,-0.0425 -0.80837,-0.51017 C 75.871136,98.251698 60.202461,13.092943 60.202461,13.092943 Z"
       id="path3730"
       inkscape:connector-curvature="0"
       sodipodi:nodetypes="ccscccscccccccccc"
       transform="matrix(1.4941582,0,0,1.6980022,-13.151095,109.67407)" />
    <path
       style="fill:none;stroke:#000000;stroke-width:0.26458332px;stroke-linecap:butt;stroke-linejoin:miter;stroke-opacity:1;filter:url(#filter9398)"
       d="m 48.401814,15.200751 14.552084,83.414617 c 0,0 0.106304,1.08668 1.287481,1.13393 1.181176,0.0472 11.906249,-0.43704 11.906249,-0.43704 L 60.202461,13.092943 Z"
       id="path3732"
       inkscape:connector-curvature="0"
       transform="matrix(1.4941582,0,0,1.6980022,-13.151095,109.67407)" />
    <path
       style="fill:#1a1a1a;stroke:#000000;stroke-width:0.26458332px;stroke-linecap:butt;stroke-linejoin:miter;stroke-opacity:1;filter:url(#filter9392)"
       d="m 12.163347,45.864067 32.222471,-5.646018 0.165364,0.661459 -32.340588,5.409784 z"
       id="path3742"
       inkscape:connector-curvature="0"
       transform="matrix(1.4941582,0,0,1.6980022,-13.151095,109.67407)" />
    <path
       style="fill:#1a1a1a;stroke:#000000;stroke-width:0.26458332px;stroke-linecap:butt;stroke-linejoin:miter;stroke-opacity:1;filter:url(#filter9386)"
       d="M 45.047276,43.690706 44.881912,43.147365 12.5177,48.486279 12.58857,48.911501 Z"
       id="path3744"
       inkscape:connector-curvature="0"
       transform="matrix(1.4941582,0,0,1.6980022,-13.151095,109.67407)" />
    <path
       style="fill:#000000;stroke:#000000;stroke-width:0.26458332px;stroke-linecap:butt;stroke-linejoin:miter;stroke-opacity:1;filter:url(#filter9380)"
       d="m 46.08671,49.809195 -0.118118,-0.637836 -32.836681,4.937315 0.118118,0.354351 z"
       id="path3746"
       inkscape:connector-curvature="0"
       transform="matrix(1.4941582,0,0,1.6980022,-13.151095,109.67407)" />
    <path
       style="fill:#000000;stroke:#000000;stroke-width:0.26458332px;stroke-linecap:butt;stroke-linejoin:miter;stroke-opacity:1;filter:url(#filter9374)"
       d="m 45.732357,46.761761 -0.307105,-0.850447 -32.765811,5.386162 0.259858,0.590587 z"
       id="path3748"
       inkscape:connector-curvature="0"
       transform="matrix(1.4941582,0,0,1.6980022,-13.151095,109.67407)" />
    <path
       style="fill:#1a1a1a;stroke:#000000;stroke-width:0.26458332px;stroke-linecap:butt;stroke-linejoin:miter;stroke-opacity:1;filter:url(#filter9368)"
       d="m 46.653673,52.502275 -0.118116,-0.425222 -33.02567,4.819195 0.141741,0.63784 z"
       id="path3750"
       inkscape:connector-curvature="0"
       transform="matrix(1.4941582,0,0,1.6980022,-13.151095,109.67407)" />
    <path
       style="fill:#1a1a1a;stroke:#000000;stroke-width:0.26458332px;stroke-linecap:butt;stroke-linejoin:miter;stroke-opacity:1;filter:url(#filter9362)"
       d="m 46.488308,54.935497 -32.624068,4.512091 0.04725,0.51972 32.789435,-4.535717 z"
       id="path3752"
       inkscape:connector-curvature="0"
       transform="matrix(1.4941582,0,0,1.6980022,-13.151095,109.67407)" />
    <path
       style="fill:#1a1a1a;stroke:#000000;stroke-width:0.26458332px;stroke-linecap:butt;stroke-linejoin:miter;stroke-opacity:1;filter:url(#filter9356)"
       d="m 47.315131,58.337278 -0.165365,-0.59058 -32.978421,4.51209 0.118118,0.73233 z"
       id="path3754"
       inkscape:connector-curvature="0"
       transform="matrix(1.4941582,0,0,1.6980022,-13.151095,109.67407)" />
    <path
       style="fill:#1a1a1a;stroke:#000000;stroke-width:0.26458332px;stroke-linecap:butt;stroke-linejoin:miter;stroke-opacity:1;filter:url(#filter9350)"
       d="m 47.929343,61.479208 -0.188987,-0.75595 -33.285527,4.27585 0.14174,0.44885 z"
       id="path3807"
       inkscape:connector-curvature="0"
       transform="matrix(1.4941582,0,0,1.6980022,-13.151095,109.67407)" />
    <path
       style="fill:#1a1a1a;stroke:#000000;stroke-width:0.26458332px;stroke-linecap:butt;stroke-linejoin:miter;stroke-opacity:1;filter:url(#filter9344)"
       d="m 48.519932,64.314028 -0.165364,-0.8032 -33.450895,4.25224 0.0945,0.56696 z"
       id="path3809"
       inkscape:connector-curvature="0"
       transform="matrix(1.4941582,0,0,1.6980022,-13.151095,109.67407)" />
    <path
       style="fill:#1a1a1a;stroke:#000000;stroke-width:0.26458332px;stroke-linecap:butt;stroke-linejoin:miter;stroke-opacity:1;filter:url(#filter9338)"
       d="m 49.582989,67.337838 -0.259858,-0.8032 -34.159597,4.016 0.14174,0.51972 z"
       id="path3811"
       inkscape:connector-curvature="0"
       transform="matrix(1.4941582,0,0,1.6980022,-13.151095,109.67407)" />
    <path
       style="fill:#1a1a1a;stroke:#000000;stroke-width:0.26458332px;stroke-linecap:butt;stroke-linejoin:miter;stroke-opacity:1;filter:url(#filter9332)"
       d="m 50.126329,70.267158 -0.236233,-0.8032 -34.324965,3.85063 0.118118,0.59059 z"
       id="path3813"
       inkscape:connector-curvature="0"
       transform="matrix(1.4941582,0,0,1.6980022,-13.151095,109.67407)" />
    <path
       style="fill:#1a1a1a;stroke:#000000;stroke-width:0.26458332px;stroke-linecap:butt;stroke-linejoin:miter;stroke-opacity:1;filter:url(#filter9326)"
       d="m 50.598801,73.243718 -0.141743,-0.61421 -34.608444,3.40178 0.165365,0.4961 z"
       id="path3815"
       inkscape:connector-curvature="0"
       transform="matrix(1.4941582,0,0,1.6980022,-13.151095,109.67407)" />
    <path
       style="fill:#1a1a1a;stroke:#000000;stroke-width:0.26458332px;stroke-linecap:butt;stroke-linejoin:miter;stroke-opacity:1;filter:url(#filter9320)"
       d="m 51.024023,76.078538 -0.188986,-0.68508 -34.655694,3.28367 0.236236,0.75595 z"
       id="path3819"
       inkscape:connector-curvature="0"
       transform="matrix(1.4941582,0,0,1.6980022,-13.151095,109.67407)" />
    <path
       style="fill:#1a1a1a;stroke:#000000;stroke-width:0.26458332px;stroke-linecap:butt;stroke-linejoin:miter;stroke-opacity:1;filter:url(#filter9314)"
       d="m 16.675437,81.700938 34.490329,-3.44903 v 0.87406 l -34.348587,3.04744 z"
       id="path3821"
       inkscape:connector-curvature="0"
       transform="matrix(1.4941582,0,0,1.6980022,-13.151095,109.67407)" />
    <path
       style="fill:#1a1a1a;stroke:#000000;stroke-width:0.26458332px;stroke-linecap:butt;stroke-linejoin:miter;stroke-opacity:1;filter:url(#filter9308)"
       d="m 51.950515,85.122078 -0.133636,-0.53454 -34.477769,2.53906 0.03341,0.46772 z"
       id="path3823"
       inkscape:connector-curvature="0"
       transform="matrix(1.4941582,0,0,1.6980022,-13.151095,109.67407)" />
    <path
       style="fill:#1a1a1a;stroke:#000000;stroke-width:0.26458332px;stroke-linecap:butt;stroke-linejoin:miter;stroke-opacity:1;filter:url(#filter9302)"
       d="m 51.382565,82.148708 v -0.66817 l -34.511178,2.83973 0.133636,0.53454 z"
       id="path3825"
       inkscape:connector-curvature="0"
       transform="matrix(1.4941582,0,0,1.6980022,-13.151095,109.67407)" />
    <path
       style="fill:#1a1a1a;stroke:#000000;stroke-width:0.26458332px;stroke-linecap:butt;stroke-linejoin:miter;stroke-opacity:1;filter:url(#filter9296)"
       d="m 52.184374,88.028638 v -0.53454 l -34.477769,2.37202 0.06682,0.46772 z"
       id="path3827"
       inkscape:connector-curvature="0"
       transform="matrix(1.4941582,0,0,1.6980022,-13.151095,109.67407)" />
    <path
       style="fill:#1a1a1a;stroke:#000000;stroke-width:0.26458332px;stroke-linecap:butt;stroke-linejoin:miter;stroke-opacity:1;filter:url(#filter9290)"
       d="m 52.351417,91.302688 -0.06682,-0.50113 -34.243909,1.77066 0.06682,0.50113 z"
       id="path3829"
       inkscape:connector-curvature="0"
       transform="matrix(1.4941582,0,0,1.6980022,-13.151095,109.67407)" />
    <path
       style="fill:none;stroke:#000000;stroke-width:0.26458332px;stroke-linecap:butt;stroke-linejoin:miter;stroke-opacity:1;filter:url(#filter9284)"
       d="m 79.986449,104.1669 c 0,0 -1.724517,0.61421 -2.031621,-0.94494 -0.307107,-1.55916 -0.472472,-4.110502 -0.472472,-4.110502 l 65.239564,-11.65077 0.63477,4.6104 z"
       id="path3839"
       inkscape:connector-curvature="0"
       transform="matrix(1.4941582,0,0,1.6980022,-13.151095,109.67407)" />
    <path
       style="fill:#000000;fill-opacity:0;stroke-width:0.03762806"
       d="m 6.526266,197.15316 c -0.013298,-0.14724 -0.01951,-0.27194 -0.013891,-0.27713 0.019801,-0.0181 2.5533836,-0.47135 2.7105036,-0.48483 0.08737,-0.008 0.4050337,-0.059 0.7059417,-0.11448 1.4216557,-0.26193 3.4154287,-0.61449 3.4965577,-0.61831 0.04971,-0.003 0.446799,-0.0688 0.882431,-0.14766 0.435634,-0.0789 0.886119,-0.15319 1.001077,-0.16512 0.11496,-0.0115 0.242155,-0.036 0.282655,-0.0536 0.04051,-0.0175 0.22441,-0.0533 0.408689,-0.0795 0.184274,-0.0263 0.414462,-0.0659 0.511533,-0.0882 0.09707,-0.0222 0.287673,-0.0579 0.423566,-0.0791 0.310018,-0.0486 0.859894,-0.14475 2.117836,-0.37032 0.543577,-0.0974 1.131278,-0.19827 1.305999,-0.22398 0.174722,-0.0257 1.10392,-0.19138 2.064891,-0.36814 0.960966,-0.17676 1.834574,-0.32788 1.941348,-0.33581 0.106773,-0.008 0.432391,-0.0605 0.723596,-0.11691 1.046921,-0.20262 3.372759,-0.623 4.782776,-0.86445 0.262084,-0.0449 1.024504,-0.18124 1.69427,-0.30301 2.055398,-0.3737 2.51114,-0.45384 2.859078,-0.5027 0.18443,-0.0259 0.351206,-0.0607 0.370621,-0.0772 0.01941,-0.0164 0.321205,-0.079 0.670649,-0.1387 0.872006,-0.14908 1.378612,-0.24268 2.08254,-0.38476 0.330028,-0.0666 0.695353,-0.12926 0.811835,-0.13918 0.189972,-0.0161 1.767877,-0.30814 11.295125,-2.08995 1.475427,-0.27595 3.254171,-0.60853 3.952764,-0.73907 0.698595,-0.13056 1.280381,-0.22446 1.292862,-0.2087 0.03043,0.0384 0.278395,0.81112 0.278395,0.86746 0,0.0276 -0.564854,0.14493 -1.49131,0.3098 -3.778633,0.67239 -13.21733,2.33218 -13.898297,2.44399 -0.417388,0.0685 -0.957439,0.16921 -1.200109,0.22373 -0.242664,0.0546 -0.551967,0.10825 -0.687328,0.11944 -0.320176,0.0264 -1.746638,0.28228 -1.869609,0.33541 -0.05222,0.0225 -0.157042,0.041 -0.232933,0.041 -0.123627,0 -2.457617,0.39743 -4.267608,0.72669 -0.377477,0.0687 -0.774574,0.13163 -0.882431,0.13994 -0.10786,0.008 -0.386715,0.0505 -0.619675,0.0937 -0.232963,0.0433 -0.595456,0.10711 -0.805543,0.14194 -0.210086,0.0348 -1.099577,0.19012 -1.976647,0.34515 -0.87707,0.15503 -1.729684,0.29805 -1.894698,0.3178 -0.390893,0.0468 -1.540562,0.24111 -3.441484,0.58165 -0.427093,0.0765 -0.863897,0.14659 -0.970672,0.15574 -0.106774,0.009 -0.345031,0.044 -0.529459,0.0776 -0.184431,0.0336 -0.414745,0.0725 -0.511812,0.0865 -0.09708,0.0141 -0.573579,0.0946 -1.058917,0.17919 -0.485337,0.0845 -0.99362,0.16545 -1.129514,0.1799 -0.135894,0.0144 -0.350325,0.0513 -0.476511,0.0818 -0.126181,0.0307 -0.372389,0.0755 -0.547108,0.10012 -0.174723,0.0244 -0.405034,0.0617 -0.511808,0.0827 -0.106774,0.021 -0.638884,0.10952 -1.182462,0.19667 -1.21431,0.19472 -3.473851,0.56786 -4.376858,0.72279 -0.368859,0.0632 -0.8771377,0.14533 -1.1295157,0.18234 -0.4489467,0.0658 -2.6632286,0.44278 -2.8452032,0.48435 -0.090084,0.0206 -0.092536,0.0153 -0.1161562,-0.24669 z"
       id="path9592"
       inkscape:connector-curvature="0" />
    <path
       style="fill:#000000;fill-opacity:0;stroke-width:0.03762806"
       d="m 6.526266,197.15316 c -0.013298,-0.14724 -0.01951,-0.27194 -0.013891,-0.27713 0.019801,-0.0181 2.5533836,-0.47135 2.7105036,-0.48483 0.08737,-0.008 0.4050337,-0.059 0.7059417,-0.11448 1.4216557,-0.26193 3.4154287,-0.61449 3.4965577,-0.61831 0.04971,-0.003 0.446799,-0.0688 0.882431,-0.14766 0.435634,-0.0789 0.886119,-0.15319 1.001077,-0.16512 0.11496,-0.0115 0.242155,-0.036 0.282655,-0.0536 0.04051,-0.0175 0.22441,-0.0533 0.408689,-0.0795 0.184274,-0.0263 0.414462,-0.0659 0.511533,-0.0882 0.09707,-0.0222 0.287673,-0.0579 0.423566,-0.0791 0.310018,-0.0486 0.859894,-0.14475 2.117836,-0.37032 0.543577,-0.0974 1.131278,-0.19827 1.305999,-0.22398 0.174722,-0.0257 1.10392,-0.19138 2.064891,-0.36814 0.960966,-0.17676 1.834574,-0.32788 1.941348,-0.33581 0.106773,-0.008 0.432391,-0.0605 0.723596,-0.11691 1.046921,-0.20262 3.372759,-0.623 4.782776,-0.86445 0.262084,-0.0449 1.024504,-0.18124 1.69427,-0.30301 2.055398,-0.3737 2.51114,-0.45384 2.859078,-0.5027 0.18443,-0.0259 0.351206,-0.0607 0.370621,-0.0772 0.01941,-0.0164 0.321205,-0.079 0.670649,-0.1387 0.872006,-0.14908 1.378612,-0.24268 2.08254,-0.38476 0.330028,-0.0666 0.695353,-0.12926 0.811835,-0.13918 0.189972,-0.0161 1.767877,-0.30814 11.295125,-2.08995 1.475427,-0.27595 3.254171,-0.60853 3.952764,-0.73907 0.698595,-0.13056 1.280381,-0.22446 1.292862,-0.2087 0.03043,0.0384 0.278395,0.81112 0.278395,0.86746 0,0.0276 -0.564854,0.14493 -1.49131,0.3098 -3.778633,0.67239 -13.21733,2.33218 -13.898297,2.44399 -0.417388,0.0685 -0.957439,0.16921 -1.200109,0.22373 -0.242664,0.0546 -0.551967,0.10825 -0.687328,0.11944 -0.320176,0.0264 -1.746638,0.28228 -1.869609,0.33541 -0.05222,0.0225 -0.157042,0.041 -0.232933,0.041 -0.123627,0 -2.457617,0.39743 -4.267608,0.72669 -0.377477,0.0687 -0.774574,0.13163 -0.882431,0.13994 -0.10786,0.008 -0.386715,0.0505 -0.619675,0.0937 -0.232963,0.0433 -0.595456,0.10711 -0.805543,0.14194 -0.210086,0.0348 -1.099577,0.19012 -1.976647,0.34515 -0.87707,0.15503 -1.729684,0.29805 -1.894698,0.3178 -0.390893,0.0468 -1.540562,0.24111 -3.441484,0.58165 -0.427093,0.0765 -0.863897,0.14659 -0.970672,0.15574 -0.106774,0.009 -0.345031,0.044 -0.529459,0.0776 -0.184431,0.0336 -0.414745,0.0725 -0.511812,0.0865 -0.09708,0.0141 -0.573579,0.0946 -1.058917,0.17919 -0.485337,0.0845 -0.99362,0.16545 -1.129514,0.1799 -0.135894,0.0144 -0.350325,0.0513 -0.476511,0.0818 -0.126181,0.0307 -0.372389,0.0755 -0.547108,0.10012 -0.174723,0.0244 -0.405034,0.0617 -0.511808,0.0827 -0.106774,0.021 -0.638884,0.10952 -1.182462,0.19667 -1.21431,0.19472 -3.473851,0.56786 -4.376858,0.72279 -0.368859,0.0632 -0.8771377,0.14533 -1.1295157,0.18234 -0.4489467,0.0658 -2.6632286,0.44278 -2.8452032,0.48435 -0.090084,0.0206 -0.092536,0.0153 -0.1161562,-0.24669 z"
       id="path9594"
       inkscape:connector-curvature="0" />
  </g>
</svg>
