<?xml version="1.0" encoding="UTF-8" standalone="no"?>
<!-- Created with Inkscape (http://www.inkscape.org/) -->

<svg
   xmlns:dc="http://purl.org/dc/elements/1.1/"
   xmlns:cc="http://creativecommons.org/ns#"
   xmlns:rdf="http://www.w3.org/1999/02/22-rdf-syntax-ns#"
   xmlns:svg="http://www.w3.org/2000/svg"
   xmlns="http://www.w3.org/2000/svg"
   xmlns:sodipodi="http://sodipodi.sourceforge.net/DTD/sodipodi-0.dtd"
   xmlns:inkscape="http://www.inkscape.org/namespaces/inkscape"
   width="16px"
   height="16px"
   viewBox="0 0 16 16"
   version="1.1"
   id="SVGRoot"
   inkscape:version="0.92.5 (2060ec1f9f, 2020-04-08)"
   sodipodi:docname="bash-logo.svg">
  <defs
     id="defs4543" />
  <sodipodi:namedview
     id="base"
     pagecolor="#ffffff"
     bordercolor="#666666"
     borderopacity="1.0"
     inkscape:pageopacity="0.0"
     inkscape:pageshadow="2"
     inkscape:zoom="32"
     inkscape:cx="6.1659418"
     inkscape:cy="6.8810494"
     inkscape:document-units="px"
     inkscape:current-layer="layer1"
     showgrid="false"
     inkscape:window-width="3440"
     inkscape:window-height="1376"
     inkscape:window-x="0"
     inkscape:window-y="27"
     inkscape:window-maximized="1"
     inkscape:grid-bbox="true" />
  <metadata
     id="metadata4546">
    <rdf:RDF>
      <cc:Work
         rdf:about="">
        <dc:format>image/svg+xml</dc:format>
        <dc:type
           rdf:resource="http://purl.org/dc/dcmitype/StillImage" />
        <dc:title></dc:title>
      </cc:Work>
    </rdf:RDF>
  </metadata>
  <g
     inkscape:label="Layer 1"
     inkscape:groupmode="layer"
     id="layer1">
    <g
       id="g6152"
       transform="translate(1.0026947,0.04824095)">
      <path
         inkscape:connector-curvature="0"
         id="path270"
         style="fill:#232c35;fill-opacity:1;fill-rule:nonzero;stroke:none;stroke-width:0.12574404"
         d="M 3.6022162,14.741938 H 5.8656087 V 13.610241 H 3.6022162 Z" />
      <path
         inkscape:connector-curvature="0"
         id="path272"
         style="fill:#232c35;fill-opacity:1;fill-rule:nonzero;stroke:none;stroke-width:0.12574404"
         d="M 1.338823,13.610241 H 3.6022162 V 12.478545 H 1.338823 Z" />
      <g
         transform="matrix(0.12574405,0,0,-0.12574405,1.338823,4.5567201)"
         id="g274">
        <path
           inkscape:connector-curvature="0"
           id="path276"
           style="fill:#232c35;fill-opacity:1;fill-rule:nonzero;stroke:none"
           d="m 0,0 v 9 h -9 v -63 -9 h 9 v 9 z" />
      </g>
      <path
         inkscape:connector-curvature="0"
         id="path278"
         style="fill:#232c35;fill-opacity:1;fill-rule:nonzero;stroke:none;stroke-width:0.12574404"
         d="M 3.6022162,2.2932766 H 1.338823 v 1.1316969 h 2.2633932 z" />
      <path
         inkscape:connector-curvature="0"
         id="path280"
         style="fill:#232c35;fill-opacity:1;fill-rule:nonzero;stroke:none;stroke-width:0.12574404"
         d="M 5.8656087,1.1615804 H 3.6022162 v 1.1316962 h 2.2633925 z" />
      <path
         inkscape:connector-curvature="0"
         id="path282"
         style="fill:#232c35;fill-opacity:1;fill-rule:nonzero;stroke:none;stroke-width:0.12574404"
         d="M 8.129002,0.0298841 H 5.8656087 V 1.1615804 H 8.129002 Z" />
      <path
         inkscape:connector-curvature="0"
         id="path284"
         style="fill:#232c35;fill-opacity:1;fill-rule:nonzero;stroke:none;stroke-width:0.12574404"
         d="M 10.392394,1.1615804 H 8.129002 v 1.1316962 h 2.263392 z" />
      <path
         inkscape:connector-curvature="0"
         id="path286"
         style="fill:#232c35;fill-opacity:1;fill-rule:nonzero;stroke:none;stroke-width:0.12574404"
         d="m 12.655787,2.2932766 h -2.263393 v 1.1316969 h 2.263393 z" />
      <path
         inkscape:connector-curvature="0"
         id="path288"
         style="fill:#232c35;fill-opacity:1;fill-rule:nonzero;stroke:none;stroke-width:0.12574404"
         d="M 9.260698,13.610241 H 8.129002 v -1.131696 h 1.131696 z m 0,-1.131696 V 11.346848 H 8.129002 V 10.215152 9.0834548 h 1.131696 1.131696 v 1.1316972 2.263393 z M 12.655787,4.5566697 H 11.524091 V 5.6883659 H 9.260698 V 6.8200618 H 8.129002 V 7.951759 H 6.9973048 v 4.526786 1.131696 1.131697 H 5.8656087 v 1.131696 H 8.129002 v -1.131696 h 2.263392 v -1.131697 h 2.263393 v -1.131696 h -1.131696 v -1.131697 h 1.131696 v 1.131697 h 1.131697 V 3.4249735 h -1.131697 z" />
      <path
         inkscape:connector-curvature="0"
         id="path290"
         style="fill:#61cdf6;fill-opacity:1;fill-rule:nonzero;stroke:none;stroke-width:0.12574404"
         d="M 8.129002,13.610241 H 9.260698 V 12.478545 H 8.129002 Z" />
      <g
         transform="matrix(0.12574405,0,0,-0.12574405,10.392394,9.0835046)"
         id="g292">
        <path
           inkscape:connector-curvature="0"
           id="path294"
           style="fill:#61cdf6;fill-opacity:1;fill-rule:nonzero;stroke:none"
           d="m 0,0 h -9 -9 v -9 -9 h 9 v -9 h 9 v 18 z" />
      </g>
      <path
         inkscape:connector-curvature="0"
         id="path296"
         style="fill:#4dab47;fill-opacity:1;fill-rule:nonzero;stroke:none;stroke-width:0.12574404"
         d="m 11.524091,12.478545 h 1.131696 v -1.131697 h -1.131696 z" />
      <g
         transform="matrix(0.12574405,0,0,-0.12574405,6.9973048,13.610291)"
         id="g298">
        <path
           inkscape:connector-curvature="0"
           id="path300"
           style="fill:#ffffff;fill-opacity:1;fill-rule:nonzero;stroke:none"
           d="m 0,0 v 9 36 h 9 v 9 h 9 v 9 h 18 v 9 h 9 v 9 H 27 v 9 H 9 v 9 H -9 V 90 H -27 V 81 H -45 V 72 18 9 h 18 V 0 h 18 v -9 h 9 z" />
      </g>
    </g>
  </g>
</svg>
