<?xml version="1.0" encoding="UTF-8" standalone="no"?>
<!-- Created with Inkscape (http://www.inkscape.org/) -->

<svg
   xmlns:dc="http://purl.org/dc/elements/1.1/"
   xmlns:cc="http://creativecommons.org/ns#"
   xmlns:rdf="http://www.w3.org/1999/02/22-rdf-syntax-ns#"
   xmlns:svg="http://www.w3.org/2000/svg"
   xmlns="http://www.w3.org/2000/svg"
   xmlns:sodipodi="http://sodipodi.sourceforge.net/DTD/sodipodi-0.dtd"
   xmlns:inkscape="http://www.inkscape.org/namespaces/inkscape"
   width="16px"
   height="16px"
   viewBox="0 0 16 16"
   version="1.1"
   id="SVGRoot"
   inkscape:version="0.92.5 (2060ec1f9f, 2020-04-08)"
   sodipodi:docname="flutter-logo.svg">
  <defs
     id="defs4543" />
  <sodipodi:namedview
     id="base"
     pagecolor="#ffffff"
     bordercolor="#666666"
     borderopacity="1.0"
     inkscape:pageopacity="0.0"
     inkscape:pageshadow="2"
     inkscape:zoom="22.627417"
     inkscape:cx="6.1659418"
     inkscape:cy="16.392542"
     inkscape:document-units="px"
     inkscape:current-layer="layer1"
     showgrid="false"
     inkscape:window-width="3440"
     inkscape:window-height="1376"
     inkscape:window-x="0"
     inkscape:window-y="27"
     inkscape:window-maximized="1"
     inkscape:grid-bbox="true" />
  <metadata
     id="metadata4546">
    <rdf:RDF>
      <cc:Work
         rdf:about="">
        <dc:format>image/svg+xml</dc:format>
        <dc:type
           rdf:resource="http://purl.org/dc/dcmitype/StillImage" />
        <dc:title></dc:title>
      </cc:Work>
    </rdf:RDF>
  </metadata>
  <g
     inkscape:label="Layer 1"
     inkscape:groupmode="layer"
     id="layer1">
    <g
       id="g6724"
       transform="translate(0.49552318,-0.17763107)">
      <g
         transform="matrix(0.12535922,0,0,-0.12535922,8.632709,13.818796)"
         id="g108">
        <path
           inkscape:connector-curvature="0"
           id="path110"
           style="fill:#195a9a;fill-opacity:1;fill-rule:nonzero;stroke:none"
           d="m 0,0 h -9 v -9 h 9 v -9 h 36 v 9 H 27 V 0 H 18 V 9 H 9 0 Z" />
      </g>
      <g
         transform="matrix(0.12535922,0,0,-0.12535922,9.760943,7.0493987)"
         id="g112">
        <path
           inkscape:connector-curvature="0"
           id="path114"
           style="fill:#3fb6d3;fill-opacity:1;fill-rule:nonzero;stroke:none"
           d="m 0,0 v -9 h -9 v -9 h -9 v -9 h 9 v -9 h 9 9 v 9 h 9 v 9 h 9 v 9 h 9 v 9 z" />
      </g>
      <g
         transform="matrix(0.12535922,0,0,-0.12535922,1.8633117,10.434097)"
         id="g116">
        <path
           inkscape:connector-curvature="0"
           id="path118"
           style="fill:#3fb6d3;fill-opacity:1;fill-rule:nonzero;stroke:none"
           d="m 0,0 h 18 v 9 h 9 v 9 h 9 v 9 h 9 v 9 h 9 v 9 h 9 v 9 h 9 v 9 h 9 v 9 h 9 v 9 H 54 V 72 H 45 V 63 H 36 V 54 H 27 V 45 H 18 V 36 H 9 V 27 H 0 V 18 H -9 V 9 h 9 z" />
      </g>
      <g
         transform="matrix(0.12535922,0,0,-0.12535922,8.632709,10.434097)"
         id="g120">
        <path
           inkscape:connector-curvature="0"
           id="path122"
           style="fill:#26aacd;fill-opacity:1;fill-rule:nonzero;stroke:none"
           d="m 0,0 h -9 -9 v -9 h -9 v -9 h 9 v -9 h 9 9 v 9 h 9 v 9 H 0 Z" />
      </g>
    </g>
  </g>
</svg>
