<?xml version="1.0" encoding="UTF-8" standalone="no"?>
<!-- Created with Inkscape (http://www.inkscape.org/) -->

<svg
   xmlns:dc="http://purl.org/dc/elements/1.1/"
   xmlns:cc="http://creativecommons.org/ns#"
   xmlns:rdf="http://www.w3.org/1999/02/22-rdf-syntax-ns#"
   xmlns:svg="http://www.w3.org/2000/svg"
   xmlns="http://www.w3.org/2000/svg"
   xmlns:sodipodi="http://sodipodi.sourceforge.net/DTD/sodipodi-0.dtd"
   xmlns:inkscape="http://www.inkscape.org/namespaces/inkscape"
   width="16px"
   height="16px"
   viewBox="0 0 16 16"
   version="1.1"
   id="SVGRoot"
   inkscape:version="0.92.5 (2060ec1f9f, 2020-04-08)"
   sodipodi:docname="rails-logo.svg">
  <defs
     id="defs4543" />
  <sodipodi:namedview
     id="base"
     pagecolor="#ffffff"
     bordercolor="#666666"
     borderopacity="1.0"
     inkscape:pageopacity="0.0"
     inkscape:pageshadow="2"
     inkscape:zoom="45.254834"
     inkscape:cx="6.1659418"
     inkscape:cy="6.8810494"
     inkscape:document-units="px"
     inkscape:current-layer="layer1"
     showgrid="false"
     inkscape:window-width="3440"
     inkscape:window-height="1376"
     inkscape:window-x="0"
     inkscape:window-y="27"
     inkscape:window-maximized="1"
     inkscape:grid-bbox="true" />
  <metadata
     id="metadata4546">
    <rdf:RDF>
      <cc:Work
         rdf:about="">
        <dc:format>image/svg+xml</dc:format>
        <dc:type
           rdf:resource="http://purl.org/dc/dcmitype/StillImage" />
        <dc:title></dc:title>
      </cc:Work>
    </rdf:RDF>
  </metadata>
  <g
     inkscape:label="Layer 1"
     inkscape:groupmode="layer"
     id="layer1">
    <g
       id="g6079"
       transform="translate(0.61040499,0.01873955)">
      <g
         transform="matrix(0.10957002,0,0,-0.10957002,3.4450741,1.0783499)"
         id="g302">
        <path
           inkscape:connector-curvature="0"
           id="path304"
           style="fill:#5c0913;fill-opacity:1;fill-rule:nonzero;stroke:none"
           d="m 0,0 h 27 9 45 9 V 9 H 0 Z" />
      </g>
      <path
         inkscape:connector-curvature="0"
         id="path306"
         style="fill:#a72d3b;fill-opacity:1;fill-rule:nonzero;stroke:none;stroke-width:0.10957001"
         d="M 3.4450741,3.0505661 H 4.4312044 V 4.036696 H 3.4450741 Z m 0,1.9722603 V 6.0089562 H 2.4589443 V 8.9673466 H 3.4450741 V 6.9950863 H 4.4312044 V 5.0228264 h 0.98613 V 3.0505661 H 7.3895946 V 2.0644358 h -0.98613 v -0.98613 H 3.4450741 v 0.98613 H 2.4589443 v 2.9583906 z" />
      <g
         transform="matrix(0.10957002,0,0,-0.10957002,9.361855,14.884171)"
         id="g308">
        <path
           inkscape:connector-curvature="0"
           id="path310"
           style="fill:#5c0913;fill-opacity:1;fill-rule:nonzero;stroke:none"
           d="m 0,0 h -9 -9 -9 -9 -9 -18 v -9 h 36 45 V 0 H 9 Z" />
      </g>
      <g
         transform="matrix(0.10957002,0,0,-0.10957002,9.361855,2.06448)"
         id="g312">
        <path
           inkscape:connector-curvature="0"
           id="path314"
           style="fill:#a72d3b;fill-opacity:1;fill-rule:nonzero;stroke:none"
           d="m 0,0 h 18 v -9 h 9 V 9 H -18 V 0 Z" />
      </g>
      <g
         transform="matrix(0.10957002,0,0,-0.10957002,11.334115,4.0367402)"
         id="g316">
        <path
           inkscape:connector-curvature="0"
           id="path318"
           style="fill:#a72d3b;fill-opacity:1;fill-rule:nonzero;stroke:none"
           d="M 0,0 V 9 H -18 V 0 h 9 v -9 h -9 v 9 h -9 v -18 h 9 v -9 h -9 v -18 h 9 v -9 h -9 v -9 h -45 v 9 h -9 v -18 h 18 27 9 9 9 9 v -9 -9 H 9 V 0 Z" />
      </g>
      <path
         inkscape:connector-curvature="0"
         id="path320"
         style="fill:#5c0913;fill-opacity:1;fill-rule:nonzero;stroke:none;stroke-width:0.10957001"
         d="m 11.334115,14.884127 h 0.98613 v -0.98613 h -0.98613 z" />
      <path
         inkscape:connector-curvature="0"
         id="path322"
         style="fill:#ffffff;fill-opacity:1;fill-rule:nonzero;stroke:none;stroke-width:0.10957001"
         d="m 11.334115,4.036696 h 0.98613 V 3.0505661 h -0.98613 z" />
      <g
         transform="matrix(0.10957002,0,0,-0.10957002,9.361855,2.06448)"
         id="g324">
        <path
           inkscape:connector-curvature="0"
           id="path326"
           style="fill:#ffffff;fill-opacity:1;fill-rule:nonzero;stroke:none"
           d="m 0,0 h -18 v -9 h -18 v -18 h -9 v -18 h -9 v -18 h -9 v -9 h 9 v -9 h 45 v 9 h 9 v 9 h -9 v 18 h 9 v 9 h -9 v 18 h 9 v 9 h 18 v 9 z" />
      </g>
      <g
         transform="matrix(0.10957002,0,0,-0.10957002,3.4450741,13.89804)"
         id="g328">
        <path
           inkscape:connector-curvature="0"
           id="path330"
           style="fill:#ffffff;fill-opacity:1;fill-rule:nonzero;stroke:none"
           d="M 0,0 V 9 H 9 V 0 h 9 v 9 h 9 V 0 h 9 V 18 H 9 -9 V 0 Z" />
      </g>
      <g
         transform="matrix(0.10957002,0,0,-0.10957002,10.347984,13.89804)"
         id="g332">
        <path
           inkscape:connector-curvature="0"
           id="path334"
           style="fill:#ffffff;fill-opacity:1;fill-rule:nonzero;stroke:none"
           d="m 0,0 h 9 v 9 9 H 0 V 9 h -9 v 9 h -9 V 0 Z" />
      </g>
      <path
         inkscape:connector-curvature="0"
         id="path336"
         style="fill:#ffffff;fill-opacity:1;fill-rule:nonzero;stroke:none;stroke-width:0.10957001"
         d="M 3.4450741,5.0228264 H 2.4589443 v 0.9861298 h 0.9861298 z" />
      <path
         inkscape:connector-curvature="0"
         id="path338"
         style="fill:#ffffff;fill-opacity:1;fill-rule:nonzero;stroke:none;stroke-width:0.10957001"
         d="M 4.4312044,3.0505661 H 3.4450741 V 4.036696 h 0.9861303 z" />
      <path
         inkscape:connector-curvature="0"
         id="path340"
         style="fill:#ffffff;fill-opacity:1;fill-rule:nonzero;stroke:none;stroke-width:0.10957001"
         d="m 7.3895946,1.0783058 h -0.98613 v 0.98613 h 0.98613 z" />
      <path
         inkscape:connector-curvature="0"
         id="path342"
         style="fill:#ffffff;fill-opacity:1;fill-rule:nonzero;stroke:none;stroke-width:0.10957001"
         d="M 10.347984,4.036696 H 9.3618548 v 0.9861304 h 0.9861292 z" />
      <g
         transform="matrix(0.10957002,0,0,-0.10957002,12.320245,3.0506102)"
         id="g344">
        <path
           inkscape:connector-curvature="0"
           id="path346"
           style="fill:#5c0913;fill-opacity:1;fill-rule:nonzero;stroke:none"
           d="M 0,0 V -9 -99 H 9 V 18 H 0 Z" />
      </g>
      <path
         inkscape:connector-curvature="0"
         id="path348"
         style="fill:#5c0913;fill-opacity:1;fill-rule:nonzero;stroke:none;stroke-width:0.10957001"
         d="M 3.4450741,1.0783058 H 2.4589443 v 0.98613 h 0.9861298 z" />
      <g
         transform="matrix(0.10957002,0,0,-0.10957002,2.4589443,13.89804)"
         id="g350">
        <path
           inkscape:connector-curvature="0"
           id="path352"
           style="fill:#5c0913;fill-opacity:1;fill-rule:nonzero;stroke:none"
           d="m 0,0 v 18 18 9 27 9 27 H -9 V -18 h 9 v 9 z" />
      </g>
      <g
         transform="matrix(0.10957002,0,0,-0.10957002,10.347984,13.89804)"
         id="g354">
        <path
           inkscape:connector-curvature="0"
           id="path356"
           style="fill:#a72d3b;fill-opacity:1;fill-rule:nonzero;stroke:none"
           d="m 0,0 h -18 v 18 h -9 V 0 h -9 v 9 h -9 V 0 h -9 v 9 h -9 V 0 h -9 v -9 h 18 9 9 9 9 9 9 9 v 9 z" />
      </g>
      <path
         inkscape:connector-curvature="0"
         id="path358"
         style="fill:#a72d3b;fill-opacity:1;fill-rule:nonzero;stroke:none;stroke-width:0.10957001"
         d="M 10.347984,11.925737 H 9.3618548 v 0.98613 h 0.9861292 z" />
    </g>
  </g>
</svg>
