<?xml version="1.0" encoding="UTF-8" standalone="no"?>
<!-- Created with Inkscape (http://www.inkscape.org/) -->

<svg
   xmlns:dc="http://purl.org/dc/elements/1.1/"
   xmlns:cc="http://creativecommons.org/ns#"
   xmlns:rdf="http://www.w3.org/1999/02/22-rdf-syntax-ns#"
   xmlns:svg="http://www.w3.org/2000/svg"
   xmlns="http://www.w3.org/2000/svg"
   xmlns:sodipodi="http://sodipodi.sourceforge.net/DTD/sodipodi-0.dtd"
   xmlns:inkscape="http://www.inkscape.org/namespaces/inkscape"
   width="16px"
   height="16px"
   viewBox="0 0 16 16"
   version="1.1"
   id="SVGRoot"
   inkscape:version="0.92.5 (2060ec1f9f, 2020-04-08)"
   sodipodi:docname="css3-logo.svg">
  <defs
     id="defs4543" />
  <sodipodi:namedview
     id="base"
     pagecolor="#ffffff"
     bordercolor="#666666"
     borderopacity="1.0"
     inkscape:pageopacity="0.0"
     inkscape:pageshadow="2"
     inkscape:zoom="32"
     inkscape:cx="11.665942"
     inkscape:cy="10.087954"
     inkscape:document-units="px"
     inkscape:current-layer="layer1"
     showgrid="false"
     inkscape:window-width="3440"
     inkscape:window-height="1376"
     inkscape:window-x="0"
     inkscape:window-y="27"
     inkscape:window-maximized="1"
     inkscape:grid-bbox="true" />
  <metadata
     id="metadata4546">
    <rdf:RDF>
      <cc:Work
         rdf:about="">
        <dc:format>image/svg+xml</dc:format>
        <dc:type
           rdf:resource="http://purl.org/dc/dcmitype/StillImage" />
        <dc:title></dc:title>
      </cc:Work>
    </rdf:RDF>
  </metadata>
  <g
     inkscape:label="Layer 1"
     inkscape:groupmode="layer"
     id="layer1">
    <g
       id="g6904"
       transform="matrix(0.99021526,0,0,0.99021526,-0.20022002,0.03186202)">
      <g
         transform="matrix(0.12673608,0,0,-0.12673608,8.2812499,10.328124)"
         id="g14">
        <path
           inkscape:connector-curvature="0"
           id="path16"
           style="fill:#1773b6;fill-opacity:1;fill-rule:nonzero;stroke:none"
           d="M 0,0 V 18 H -18 V 36 H 0 v 9 H -36 V 63 H 0 v 9 H 45 V 18 H 36 V -9 h -9 v -9 H 9 v -9 H 0 v 9 h -9 v 9 h -9 -9 V 9 H -9 V 0 Z m -45,-18 h 9 v -9 h 18 v -9 h 9 v -9 H 9 v 9 h 9 v 9 h 18 v 9 h 9 V 9 h 9 V 81 H -54 V 9 h 9 z" />
      </g>
      <g
         transform="matrix(0.12673608,0,0,-0.12673608,12.843749,2.3437519)"
         id="g18">
        <path
           inkscape:connector-curvature="0"
           id="path20"
           style="fill:#34a9dc;fill-opacity:1;fill-rule:nonzero;stroke:none"
           d="m 0,0 v -36 h -9 v -9 H 0 9 V 9 H -36 V 0 h 27 z" />
      </g>
      <path
         inkscape:connector-curvature="0"
         id="path22"
         style="fill:#34a9dc;fill-opacity:1;fill-rule:nonzero;stroke:none;stroke-width:0.12673607"
         d="M 10.562499,4.6249502 H 8.2812499 v 1.140624 h 2.2812491 z" />
      <g
         transform="matrix(0.12673608,0,0,-0.12673608,11.703124,9.1874999)"
         id="g24">
        <path
           inkscape:connector-curvature="0"
           id="path26"
           style="fill:#34a9dc;fill-opacity:1;fill-rule:nonzero;stroke:none"
           d="m 0,0 v -9 h -9 v -9 h -9 v -9 H 0 v 9 H 9 V 9 H 0 Z" />
      </g>
      <path
         inkscape:connector-curvature="0"
         id="path28"
         style="fill:#34a9dc;fill-opacity:1;fill-rule:nonzero;stroke:none;stroke-width:0.12673607"
         d="M 9.421875,8.0468242 H 8.2812499 V 10.328073 H 9.421875 Z" />
      <path
         inkscape:connector-curvature="0"
         id="path30"
         style="fill:#34a9dc;fill-opacity:1;fill-rule:nonzero;stroke:none;stroke-width:0.12673607"
         d="M 8.2812499,13.749948 H 9.421875 V 12.609323 H 8.2812499 Z" />
      <g
         transform="matrix(0.12673608,0,0,-0.12673608,9.421875,10.328124)"
         id="g32">
        <path
           inkscape:connector-curvature="0"
           id="path34"
           style="fill:#ffffff;fill-opacity:1;fill-rule:nonzero;stroke:none"
           d="m 0,0 h 9 9 v 9 9 9 h 9 V 63 H 18 -9 V 45 H 9 V 36 H -9 V 18 h 9 z" />
      </g>
      <g
         transform="matrix(0.12673608,0,0,-0.12673608,8.2812499,12.609374)"
         id="g36">
        <path
           inkscape:connector-curvature="0"
           id="path38"
           style="fill:#ffffff;fill-opacity:1;fill-rule:nonzero;stroke:none"
           d="m 0,0 h 9 v 9 h 9 v 9 H 9 0 V 9 Z" />
      </g>
      <path
         inkscape:connector-curvature="0"
         id="path40"
         style="fill:#ebebeb;fill-opacity:1;fill-rule:nonzero;stroke:none;stroke-width:0.12673607"
         d="m 3.7187509,4.6249502 h 4.562499 v -2.28125 h -4.562499 z" />
      <path
         inkscape:connector-curvature="0"
         id="path42"
         style="fill:#ebebeb;fill-opacity:1;fill-rule:nonzero;stroke:none;stroke-width:0.12673607"
         d="m 6.0000009,8.0468242 h 2.281249 v -2.28125 h -2.281249 z" />
      <g
         transform="matrix(0.12673608,0,0,-0.12673608,4.8593759,9.1874999)"
         id="g44">
        <path
           inkscape:connector-curvature="0"
           id="path46"
           style="fill:#ebebeb;fill-opacity:1;fill-rule:nonzero;stroke:none"
           d="m 0,0 v -18 h 9 9 v -9 h 9 v 9 9 h -9 v 9 z" />
      </g>
    </g>
  </g>
</svg>
