<?xml version="1.0" encoding="UTF-8" standalone="no"?>
<!-- Created with Inkscape (http://www.inkscape.org/) -->

<svg
   xmlns:dc="http://purl.org/dc/elements/1.1/"
   xmlns:cc="http://creativecommons.org/ns#"
   xmlns:rdf="http://www.w3.org/1999/02/22-rdf-syntax-ns#"
   xmlns:svg="http://www.w3.org/2000/svg"
   xmlns="http://www.w3.org/2000/svg"
   xmlns:sodipodi="http://sodipodi.sourceforge.net/DTD/sodipodi-0.dtd"
   xmlns:inkscape="http://www.inkscape.org/namespaces/inkscape"
   width="16px"
   height="16px"
   viewBox="0 0 16 16"
   version="1.1"
   id="SVGRoot"
   inkscape:version="0.92.5 (2060ec1f9f, 2020-04-08)"
   sodipodi:docname="html5-logo.svg">
  <defs
     id="defs4543" />
  <sodipodi:namedview
     id="base"
     pagecolor="#ffffff"
     bordercolor="#666666"
     borderopacity="1.0"
     inkscape:pageopacity="0.0"
     inkscape:pageshadow="2"
     inkscape:zoom="45.254834"
     inkscape:cx="11.665942"
     inkscape:cy="10.087954"
     inkscape:document-units="px"
     inkscape:current-layer="layer1"
     showgrid="false"
     inkscape:window-width="3440"
     inkscape:window-height="1376"
     inkscape:window-x="0"
     inkscape:window-y="27"
     inkscape:window-maximized="1"
     inkscape:grid-bbox="true" />
  <metadata
     id="metadata4546">
    <rdf:RDF>
      <cc:Work
         rdf:about="">
        <dc:format>image/svg+xml</dc:format>
        <dc:type
           rdf:resource="http://purl.org/dc/dcmitype/StillImage" />
        <dc:title></dc:title>
      </cc:Work>
    </rdf:RDF>
  </metadata>
  <g
     inkscape:label="Layer 1"
     inkscape:groupmode="layer"
     id="layer1">
    <g
       id="g7010"
       transform="translate(-20.554345,-0.0773397)">
      <path
         inkscape:connector-curvature="0"
         id="path48"
         style="fill:#e44f26;fill-opacity:1;fill-rule:nonzero;stroke:none;stroke-width:0.1245942"
         d="m 26.311649,5.8345939 h 2.242695 V 4.7132467 h -2.242695 z" />
      <g
         transform="matrix(0.1245942,0,0,-0.1245942,24.068954,4.7132963)"
         id="g50">
        <path
           inkscape:connector-curvature="0"
           id="path52"
           style="fill:#e44f26;fill-opacity:1;fill-rule:nonzero;stroke:none"
           d="m 0,0 v 18 h 9 27 v 9 h 45 v -54 h -9 v -27 h -9 v -9 H 45 v -9 h -9 v 9 h -9 v 9 H 18 9 v 18 h 18 v -9 h 9 v 18 H 18 9 v 9 H 0 Z m -18,-36 h 9 v -27 h 9 v -9 h 18 v -9 h 9 v -9 h 18 v 9 h 9 v 9 h 18 v 9 h 9 v 27 h 9 V 36 H -18 Z" />
      </g>
      <g
         transform="matrix(0.1245942,0,0,-0.1245942,31.918388,4.7132963)"
         id="g54">
        <path
           inkscape:connector-curvature="0"
           id="path56"
           style="fill:#f1672a;fill-opacity:1;fill-rule:nonzero;stroke:none"
           d="M 0,0 H -27 V -9 H 0 v -18 -18 h -9 v -9 h -9 v -9 H 0 v 9 h 9 v 27 h 9 V 27 H -27 V 18 H 0 Z" />
      </g>
      <path
         inkscape:connector-curvature="0"
         id="path58"
         style="fill:#f1672a;fill-opacity:1;fill-rule:nonzero;stroke:none;stroke-width:0.1245942"
         d="m 29.675693,8.0772895 h -1.121349 v 2.2426975 h 1.121349 z" />
      <path
         inkscape:connector-curvature="0"
         id="path60"
         style="fill:#f1672a;fill-opacity:1;fill-rule:nonzero;stroke:none;stroke-width:0.1245942"
         d="m 28.554344,13.68403 h 1.121349 v -1.121347 h -1.121349 z" />
      <g
         transform="matrix(0.1245942,0,0,-0.1245942,30.79704,11.441384)"
         id="g62">
        <path
           inkscape:connector-curvature="0"
           id="path64"
           style="fill:#ffffff;fill-opacity:1;fill-rule:nonzero;stroke:none"
           d="m 0,0 v 9 h -9 -9 V 0 -9 h 9 v 9 z" />
      </g>
      <g
         transform="matrix(0.1245942,0,0,-0.1245942,29.675693,10.320036)"
         id="g66">
        <path
           inkscape:connector-curvature="0"
           id="path68"
           style="fill:#ffffff;fill-opacity:1;fill-rule:nonzero;stroke:none"
           d="m 0,0 h 9 9 V 18 36 H -9 V 18 h 9 z" />
      </g>
      <path
         inkscape:connector-curvature="0"
         id="path70"
         style="fill:#ffffff;fill-opacity:1;fill-rule:nonzero;stroke:none;stroke-width:0.1245942"
         d="m 31.918388,2.4705511 h -3.364044 v 2.2426956 h 3.364044 z" />
      <g
         transform="matrix(0.1245942,0,0,-0.1245942,25.190301,8.0773401)"
         id="g72">
        <path
           inkscape:connector-curvature="0"
           id="path74"
           style="fill:#ebebeb;fill-opacity:1;fill-rule:nonzero;stroke:none"
           d="M 0,0 H 9 27 V 18 H 9 v 9 H 27 V 45 H 0 -9 V 27 9 h 9 z" />
      </g>
      <g
         transform="matrix(0.1245942,0,0,-0.1245942,27.432997,9.1986888)"
         id="g76">
        <path
           inkscape:connector-curvature="0"
           id="path78"
           style="fill:#ebebeb;fill-opacity:1;fill-rule:nonzero;stroke:none"
           d="m 0,0 h -18 v -18 h 9 9 v 9 z" />
      </g>
      <g
         transform="matrix(0.1245942,0,0,-0.1245942,28.554344,10.320036)"
         id="g80">
        <path
           inkscape:connector-curvature="0"
           id="path82"
           style="fill:#ebebeb;fill-opacity:1;fill-rule:nonzero;stroke:none"
           d="m 0,0 h -9 v -9 -9 h 9 v 9 z" />
      </g>
    </g>
  </g>
</svg>
