<?xml version="1.0" encoding="UTF-8" standalone="no"?>
<!-- Created with Inkscape (http://www.inkscape.org/) -->

<svg
   xmlns:dc="http://purl.org/dc/elements/1.1/"
   xmlns:cc="http://creativecommons.org/ns#"
   xmlns:rdf="http://www.w3.org/1999/02/22-rdf-syntax-ns#"
   xmlns:svg="http://www.w3.org/2000/svg"
   xmlns="http://www.w3.org/2000/svg"
   xmlns:sodipodi="http://sodipodi.sourceforge.net/DTD/sodipodi-0.dtd"
   xmlns:inkscape="http://www.inkscape.org/namespaces/inkscape"
   width="16px"
   height="16px"
   viewBox="0 0 16 16"
   version="1.1"
   id="SVGRoot"
   inkscape:version="0.92.5 (2060ec1f9f, 2020-04-08)"
   sodipodi:docname="react-logo.svg">
  <defs
     id="defs4543" />
  <sodipodi:namedview
     id="base"
     pagecolor="#ffffff"
     bordercolor="#666666"
     borderopacity="1.0"
     inkscape:pageopacity="0.0"
     inkscape:pageshadow="2"
     inkscape:zoom="22.627417"
     inkscape:cx="6.1659418"
     inkscape:cy="16.392542"
     inkscape:document-units="px"
     inkscape:current-layer="layer1"
     showgrid="false"
     inkscape:window-width="3440"
     inkscape:window-height="1376"
     inkscape:window-x="0"
     inkscape:window-y="27"
     inkscape:window-maximized="1"
     inkscape:grid-bbox="true" />
  <metadata
     id="metadata4546">
    <rdf:RDF>
      <cc:Work
         rdf:about="">
        <dc:format>image/svg+xml</dc:format>
        <dc:type
           rdf:resource="http://purl.org/dc/dcmitype/StillImage" />
        <dc:title></dc:title>
      </cc:Work>
    </rdf:RDF>
  </metadata>
  <g
     inkscape:label="Layer 1"
     inkscape:groupmode="layer"
     id="layer1">
    <g
       id="g6630"
       transform="translate(1.3481645,-0.04222374)">
      <path
         inkscape:connector-curvature="0"
         id="path124"
         style="fill:#6fcff0;fill-opacity:1;fill-rule:nonzero;stroke:none;stroke-width:0.13502264"
         d="m 13.335457,9.8650291 h 1.215204 V 7.4346213 h -1.215204 z" />
      <path
         inkscape:connector-curvature="0"
         id="path126"
         style="fill:#6fcff0;fill-opacity:1;fill-rule:nonzero;stroke:none;stroke-width:0.13502264"
         d="M 6.0442334,9.8650291 H 8.4746406 V 7.4346213 H 6.0442334 Z" />
      <path
         inkscape:connector-curvature="0"
         id="path128"
         style="fill:#6fcff0;fill-opacity:1;fill-rule:nonzero;stroke:none;stroke-width:0.13502264"
         d="M 10.905049,0.14339848 H 8.4746406 V 1.358602 h 2.4304084 z" />
      <g
         transform="matrix(0.13502265,0,0,-0.13502265,10.905048,9.8650838)"
         id="g130">
        <path
           inkscape:connector-curvature="0"
           id="path132"
           style="fill:#6fcff0;fill-opacity:1;fill-rule:nonzero;stroke:none"
           d="m 0,0 v -9 h -9 v 9 h -9 v -9 h -9 -9 -9 v 9 h -9 v -9 h -9 v 9 h -9 -9 v -9 h 9 v -9 -9 -9 h 9 v 9 9 h 27 v -9 h 9 v 9 H 0 v -9 -9 h 9 v 9 9 9 h 9 V 0 H 9 Z" />
      </g>
      <path
         inkscape:connector-curvature="0"
         id="path134"
         style="fill:#6fcff0;fill-opacity:1;fill-rule:nonzero;stroke:none;stroke-width:0.13502264"
         d="M 8.4746406,1.358602 H 7.259437 v 1.2152043 h 1.2152036 z" />
      <path
         inkscape:connector-curvature="0"
         id="path136"
         style="fill:#6fcff0;fill-opacity:1;fill-rule:nonzero;stroke:none;stroke-width:0.13502264"
         d="M 9.6898449,9.8650291 H 10.905049 V 7.4346213 H 9.6898449 Z" />
      <path
         inkscape:connector-curvature="0"
         id="path138"
         style="fill:#6fcff0;fill-opacity:1;fill-rule:nonzero;stroke:none;stroke-width:0.13502264"
         d="M 8.4746406,15.941049 H 10.905049 V 14.725845 H 8.4746406 Z" />
      <path
         inkscape:connector-curvature="0"
         id="path140"
         style="fill:#6fcff0;fill-opacity:1;fill-rule:nonzero;stroke:none;stroke-width:0.13502264"
         d="M 7.259437,14.725845 H 8.4746406 V 13.510641 H 7.259437 Z" />
      <path
         inkscape:connector-curvature="0"
         id="path142"
         style="fill:#6fcff0;fill-opacity:1;fill-rule:nonzero;stroke:none;stroke-width:0.13502264"
         d="m -1.2469901,9.8650291 h 1.21520356 V 7.4346213 H -1.2469901 Z" />
      <path
         inkscape:connector-curvature="0"
         id="path144"
         style="fill:#6fcff0;fill-opacity:1;fill-rule:nonzero;stroke:none;stroke-width:0.13502264"
         d="M 4.8290291,0.14339848 H 2.3986213 V 1.358602 h 2.4304078 z" />
      <g
         transform="matrix(0.13502265,0,0,-0.13502265,2.3986213,7.434676)"
         id="g146">
        <path
           inkscape:connector-curvature="0"
           id="path148"
           style="fill:#6fcff0;fill-opacity:1;fill-rule:nonzero;stroke:none"
           d="M 0,0 V 9 H 9 V 0 h 9 v 9 h 9 9 9 V 0 h 9 v 9 h 9 V 0 h 9 9 v 9 h -9 v 9 9 18 H 63 V 27 18 H 45 v 9 h -9 v -9 h -9 v 9 H 18 V 18 H 0 v 9 18 H -9 V 27 18 9 h -9 V 0 h 9 z" />
      </g>
      <path
         inkscape:connector-curvature="0"
         id="path150"
         style="fill:#6fcff0;fill-opacity:1;fill-rule:nonzero;stroke:none;stroke-width:0.13502264"
         d="M 6.0442334,1.358602 H 4.8290291 v 1.2152043 h 1.2152043 z" />
      <path
         inkscape:connector-curvature="0"
         id="path152"
         style="fill:#6fcff0;fill-opacity:1;fill-rule:nonzero;stroke:none;stroke-width:0.13502264"
         d="M 7.259437,2.5738063 H 6.0442334 V 3.7890099 H 7.259437 Z" />
      <path
         inkscape:connector-curvature="0"
         id="path154"
         style="fill:#6fcff0;fill-opacity:1;fill-rule:nonzero;stroke:none;stroke-width:0.13502264"
         d="M 2.3986213,9.8650291 H 3.6138256 V 7.4346213 H 2.3986213 Z" />
      <path
         inkscape:connector-curvature="0"
         id="path156"
         style="fill:#6fcff0;fill-opacity:1;fill-rule:nonzero;stroke:none;stroke-width:0.13502264"
         d="M 2.3986213,15.941049 H 4.8290291 V 14.725845 H 2.3986213 Z" />
      <path
         inkscape:connector-curvature="0"
         id="path158"
         style="fill:#6fcff0;fill-opacity:1;fill-rule:nonzero;stroke:none;stroke-width:0.13502264"
         d="M 4.8290291,14.725845 H 6.0442334 V 13.510641 H 4.8290291 Z" />
    </g>
  </g>
</svg>
