<?xml version="1.0" encoding="UTF-8" standalone="no"?>
<!-- Created with Inkscape (http://www.inkscape.org/) -->

<svg
   xmlns:dc="http://purl.org/dc/elements/1.1/"
   xmlns:cc="http://creativecommons.org/ns#"
   xmlns:rdf="http://www.w3.org/1999/02/22-rdf-syntax-ns#"
   xmlns:svg="http://www.w3.org/2000/svg"
   xmlns="http://www.w3.org/2000/svg"
   xmlns:sodipodi="http://sodipodi.sourceforge.net/DTD/sodipodi-0.dtd"
   xmlns:inkscape="http://www.inkscape.org/namespaces/inkscape"
   width="16px"
   height="16px"
   viewBox="0 0 16 16"
   version="1.1"
   id="SVGRoot"
   inkscape:version="0.92.5 (2060ec1f9f, 2020-04-08)"
   sodipodi:docname="ruby-logo.svg">
  <defs
     id="defs4543" />
  <sodipodi:namedview
     id="base"
     pagecolor="#ffffff"
     bordercolor="#666666"
     borderopacity="1.0"
     inkscape:pageopacity="0.0"
     inkscape:pageshadow="2"
     inkscape:zoom="32"
     inkscape:cx="6.1659418"
     inkscape:cy="6.8810494"
     inkscape:document-units="px"
     inkscape:current-layer="layer1"
     showgrid="false"
     inkscape:window-width="3440"
     inkscape:window-height="1376"
     inkscape:window-x="0"
     inkscape:window-y="27"
     inkscape:window-maximized="1"
     inkscape:grid-bbox="true" />
  <metadata
     id="metadata4546">
    <rdf:RDF>
      <cc:Work
         rdf:about="">
        <dc:format>image/svg+xml</dc:format>
        <dc:type
           rdf:resource="http://purl.org/dc/dcmitype/StillImage" />
        <dc:title></dc:title>
      </cc:Work>
    </rdf:RDF>
  </metadata>
  <g
     inkscape:label="Layer 1"
     inkscape:groupmode="layer"
     id="layer1">
    <g
       id="g6364"
       transform="translate(-0.37523763,0.09375049)">
      <g
         transform="matrix(0.13408526,0,0,-0.13408526,15.012458,3.6825907)"
         id="g172">
        <path
           inkscape:connector-curvature="0"
           id="path174"
           style="fill:#86161a;fill-opacity:1;fill-rule:nonzero;stroke:none"
           d="M 0,0 H -18 V -9 H 0 v -27 h -9 v -9 h 9 v -27 h -9 v -9 h -27 v 9 h -9 v -9 h -18 -9 v 18 h -9 v -18 h -18 v -9 H 0 9 V 18 H 0 Z" />
      </g>
      <path
         inkscape:connector-curvature="0"
         id="path176"
         style="fill:#86161a;fill-opacity:1;fill-rule:nonzero;stroke:none;stroke-width:0.13408525"
         d="M 15.012458,0.06223491 H 11.392157 V 1.2690025 h 3.620301 z" />
      <g
         transform="matrix(0.13408526,0,0,-0.13408526,1.7380175,9.7164279)"
         id="g178">
        <path
           inkscape:connector-curvature="0"
           id="path180"
           style="fill:#86161a;fill-opacity:1;fill-rule:nonzero;stroke:none"
           d="M 0,0 H -9 V -36 H 0 V -9 Z" />
      </g>
      <path
         inkscape:connector-curvature="0"
         id="path182"
         style="fill:#86161a;fill-opacity:1;fill-rule:nonzero;stroke:none;stroke-width:0.13408525"
         d="m 12.598924,13.336676 h 1.206768 v -1.206767 h -1.206768 z" />
      <g
         transform="matrix(0.13408526,0,0,-0.13408526,12.598924,8.5096602)"
         id="g184">
        <path
           inkscape:connector-curvature="0"
           id="path186"
           style="fill:#86161a;fill-opacity:1;fill-rule:nonzero;stroke:none"
           d="m 0,0 h -9 v -18 h -18 v -9 h 9 v -9 h 9 v 9 h 9 v 9 h 9 v 9 H 0 Z" />
      </g>
      <g
         transform="matrix(0.13408526,0,0,-0.13408526,6.565087,10.923195)"
         id="g188">
        <path
           inkscape:connector-curvature="0"
           id="path190"
           style="fill:#86161a;fill-opacity:1;fill-rule:nonzero;stroke:none"
           d="M 0,0 H 18 V 9 H 0 -9 V -9 h 9 z" />
      </g>
      <g
         transform="matrix(0.13408526,0,0,-0.13408526,10.185389,6.0961249)"
         id="g192">
        <path
           inkscape:connector-curvature="0"
           id="path194"
           style="fill:#86161a;fill-opacity:1;fill-rule:nonzero;stroke:none"
           d="m 0,0 v -9 -9 h 9 v 9 9 h 9 V 9 H 0 Z" />
      </g>
      <g
         transform="matrix(0.13408526,0,0,-0.13408526,12.598924,12.129962)"
         id="g196">
        <path
           inkscape:connector-curvature="0"
           id="path198"
           style="fill:#e73d2b;fill-opacity:1;fill-rule:nonzero;stroke:none"
           d="m 0,0 h -9 v -9 h -9 v -9 H 9 v 9 H 0 Z" />
      </g>
      <g
         transform="matrix(0.13408526,0,0,-0.13408526,12.598924,10.923195)"
         id="g200">
        <path
           inkscape:connector-curvature="0"
           id="path202"
           style="fill:#b22324;fill-opacity:1;fill-rule:nonzero;stroke:none"
           d="m 0,0 v -9 h 9 v -9 h 9 V 9 H 9 V 0 Z" />
      </g>
      <g
         transform="matrix(0.13408526,0,0,-0.13408526,11.392157,6.0961249)"
         id="g204">
        <path
           inkscape:connector-curvature="0"
           id="path206"
           style="fill:#e73d2b;fill-opacity:1;fill-rule:nonzero;stroke:none"
           d="m 0,0 v -9 -9 h 9 v -9 h 9 v 9 h 9 V 9 H 9 V 0 Z" />
      </g>
      <g
         transform="matrix(0.13408526,0,0,-0.13408526,11.392157,2.4758231)"
         id="g208">
        <path
           inkscape:connector-curvature="0"
           id="path210"
           style="fill:#b22324;fill-opacity:1;fill-rule:nonzero;stroke:none"
           d="M 0,0 H 9 V -9 H 27 V 9 H 0 Z" />
      </g>
      <g
         transform="matrix(0.13408526,0,0,-0.13408526,10.185389,3.6825907)"
         id="g212">
        <path
           inkscape:connector-curvature="0"
           id="path214"
           style="fill:#b22324;fill-opacity:1;fill-rule:nonzero;stroke:none"
           d="M 0,0 V -9 H 18 V 0 H 9 Z" />
      </g>
      <g
         transform="matrix(0.13408526,0,0,-0.13408526,8.9786222,12.129962)"
         id="g216">
        <path
           inkscape:connector-curvature="0"
           id="path218"
           style="fill:#b22324;fill-opacity:1;fill-rule:nonzero;stroke:none"
           d="M 0,0 V 9 H -18 V 0 h -9 v -18 h 9 18 v 9 h 9 v 9 z" />
      </g>
      <g
         transform="matrix(0.13408526,0,0,-0.13408526,4.1515527,12.129962)"
         id="g220">
        <path
           inkscape:connector-curvature="0"
           id="path222"
           style="fill:#e73d2b;fill-opacity:1;fill-rule:nonzero;stroke:none"
           d="m 0,0 h -9 v 9 h -9 V -18 H 0 Z" />
      </g>
      <g
         transform="matrix(0.13408526,0,0,-0.13408526,4.1515527,9.7164279)"
         id="g224">
        <path
           inkscape:connector-curvature="0"
           id="path226"
           style="fill:#e73d2b;fill-opacity:1;fill-rule:nonzero;stroke:none"
           d="m 0,0 v -9 -9 H 9 V 0 Z" />
      </g>
      <g
         transform="matrix(0.13408526,0,0,-0.13408526,8.9786222,9.7164279)"
         id="g228">
        <path
           inkscape:connector-curvature="0"
           id="path230"
           style="fill:#e73d2b;fill-opacity:1;fill-rule:nonzero;stroke:none"
           d="M 0,0 V -9 H 18 V 9 H 9 v 9 9 H 0 V 18 H -9 V 9 h -9 V 0 Z" />
      </g>
      <g
         transform="matrix(0.13408526,0,0,-0.13408526,4.1515527,9.7164279)"
         id="g232">
        <path
           inkscape:connector-curvature="0"
           id="path234"
           style="fill:#e73d2b;fill-opacity:1;fill-rule:nonzero;stroke:none"
           d="m 0,0 v 9 h 18 v 9 h 9 v 9 h 9 v 18 h 9 V 63 H 27 V 54 H 9 V 45 H 0 V 36 H -9 V 18 h -9 V 0 Z" />
      </g>
      <path
         inkscape:connector-curvature="0"
         id="path236"
         style="fill:#ffffff;fill-opacity:1;fill-rule:nonzero;stroke:none;stroke-width:0.13408525"
         d="M 7.7718546,1.2690025 H 5.3583194 v 1.2067667 h 2.4135352 z" />
      <path
         inkscape:connector-curvature="0"
         id="path238"
         style="fill:#ffffff;fill-opacity:1;fill-rule:nonzero;stroke:none;stroke-width:0.13408525"
         d="M 5.3583194,2.4757692 H 4.1515527 v 1.2067676 h 1.2067667 z" />
      <path
         inkscape:connector-curvature="0"
         id="path240"
         style="fill:#ffffff;fill-opacity:1;fill-rule:nonzero;stroke:none;stroke-width:0.13408525"
         d="M 4.1515527,3.6825368 H 2.9447851 v 1.2067676 h 1.2067676 z" />
      <path
         inkscape:connector-curvature="0"
         id="path242"
         style="fill:#ffffff;fill-opacity:1;fill-rule:nonzero;stroke:none;stroke-width:0.13408525"
         d="M 2.9447851,4.8893044 H 1.7380175 v 2.4135342 h 1.2067676 z" />
      <path
         inkscape:connector-curvature="0"
         id="path244"
         style="fill:#ffffff;fill-opacity:1;fill-rule:nonzero;stroke:none;stroke-width:0.13408525"
         d="M 1.7380175,7.3028386 H 0.53124991 V 9.716374 H 1.7380175 Z" />
      <g
         transform="matrix(0.13408526,0,0,-0.13408526,4.1515527,9.7164279)"
         id="g246">
        <path
           inkscape:connector-curvature="0"
           id="path248"
           style="fill:#ffffff;fill-opacity:1;fill-rule:nonzero;stroke:none"
           d="m 0,0 h -18 v -9 h 9 9 z" />
      </g>
      <g
         transform="matrix(0.13408526,0,0,-0.13408526,6.565087,9.7164279)"
         id="g250">
        <path
           inkscape:connector-curvature="0"
           id="path252"
           style="fill:#ffffff;fill-opacity:1;fill-rule:nonzero;stroke:none"
           d="M 0,0 V 9 H -18 V 0 h 9 z" />
      </g>
      <path
         inkscape:connector-curvature="0"
         id="path254"
         style="fill:#ffffff;fill-opacity:1;fill-rule:nonzero;stroke:none;stroke-width:0.13408525"
         d="M 7.7718546,7.3028386 H 6.565087 v 1.2067676 h 1.2067676 z" />
      <path
         inkscape:connector-curvature="0"
         id="path256"
         style="fill:#ffffff;fill-opacity:1;fill-rule:nonzero;stroke:none;stroke-width:0.13408525"
         d="M 8.9786212,6.096072 H 7.7718546 v 1.2067666 h 1.2067666 z" />
      <g
         transform="matrix(0.13408526,0,0,-0.13408526,10.185389,4.8893583)"
         id="g258">
        <path
           inkscape:connector-curvature="0"
           id="path260"
           style="fill:#ffffff;fill-opacity:1;fill-rule:nonzero;stroke:none"
           d="M 0,0 V 9 H -9 V -9 h 9 z" />
      </g>
      <g
         transform="matrix(0.13408526,0,0,-0.13408526,10.185389,3.6825907)"
         id="g262">
        <path
           inkscape:connector-curvature="0"
           id="path264"
           style="fill:#ffffff;fill-opacity:1;fill-rule:nonzero;stroke:none"
           d="m 0,0 h 9 v 9 9 9 H 0 -18 V 18 H 0 Z" />
      </g>
      <path
         inkscape:connector-curvature="0"
         id="path266"
         style="fill:#86161a;fill-opacity:1;fill-rule:nonzero;stroke:none;stroke-width:0.13408525"
         d="m 11.392157,3.6825368 h 1.206767 V 2.4757692 h -1.206767 z" />
      <path
         inkscape:connector-curvature="0"
         id="path268"
         style="fill:#86161a;fill-opacity:1;fill-rule:nonzero;stroke:none;stroke-width:0.13408525"
         d="M 2.9447851,12.129909 H 4.1515527 V 10.923142 H 2.9447851 Z" />
    </g>
  </g>
</svg>
